<?xml version="1.0" encoding="UTF-8"?>
<svg version="1.1" xmlns="http://www.w3.org/2000/svg" width="500" height="500">
<path d="M0 0 C165 0 330 0 500 0 C500 165 500 330 500 500 C335 500 170 500 0 500 C0 335 0 170 0 0 Z " fill="#D8D8D8" transform="translate(0,0)"/>
<path d="M0 0 C1.06863785 -0.01606293 2.1372757 -0.03212585 3.23829651 -0.04867554 C8.14046526 -0.09329602 13.0424995 -0.13421825 17.94482422 -0.15722656 C20.5236923 -0.17374842 23.10251531 -0.20098794 25.68115234 -0.23925781 C29.40998977 -0.29428717 33.1377534 -0.31594502 36.86694336 -0.33056641 C38.0089772 -0.35323578 39.15101105 -0.37590515 40.32765198 -0.39926147 C49.29041135 -0.37584154 55.71584848 1.84437831 62.64428711 7.56787109 C67.37914739 13.41681615 69.86250347 18.72184211 69.94628906 26.27758789 C69.96554192 27.79517952 69.96554192 27.79517952 69.98518372 29.34342957 C69.99257065 30.43198746 69.99995758 31.52054535 70.00756836 32.64208984 C70.01564011 33.76927933 70.02371185 34.89646881 70.0320282 36.05781555 C70.04585516 38.44420846 70.05658351 40.83062103 70.06445312 43.21704102 C70.0816403 46.84934438 70.12553767 50.48073137 70.16967773 54.11279297 C70.17980749 56.43505192 70.18832271 58.75731859 70.19506836 61.07958984 C70.21257645 62.15802658 70.23008453 63.23646332 70.24812317 64.34757996 C70.22118464 73.80866151 67.71335539 80.77032958 61.27319336 87.75927734 C54.51964226 94.19707801 46.60109418 94.49375908 37.78100586 94.45849609 C36.72323441 94.46040955 35.66546295 94.462323 34.57563782 94.46429443 C32.34241497 94.46565246 30.10918414 94.46198278 27.87597656 94.45361328 C24.47890216 94.44294057 21.08236042 94.4535053 17.68530273 94.46630859 C15.50886929 94.46498631 13.33243617 94.46242249 11.15600586 94.45849609 C10.14946457 94.46254456 9.14292328 94.46659302 8.10588074 94.47076416 C-1.94267075 94.40484198 -9.78132509 93.30069308 -17.23071289 86.19287109 C-23.91147534 78.6473399 -24.55397887 71.14819713 -24.60180664 61.36474609 C-24.61083511 60.22056213 -24.61986359 59.07637817 -24.62916565 57.89752197 C-24.64364778 55.48021044 -24.65254981 53.06285989 -24.65625 50.64550781 C-24.6681278 46.96920804 -24.71732175 43.29459738 -24.76782227 39.61865234 C-24.77728955 37.26319173 -24.78452312 34.90772087 -24.78930664 32.55224609 C-24.80883896 31.46337097 -24.82837128 30.37449585 -24.84849548 29.25262451 C-24.79730571 20.48496645 -22.48333165 14.02929322 -16.79321289 7.31787109 C-11.32548622 2.78365874 -7.15099121 0.09780927 0 0 Z " fill="#10681C" transform="translate(82.230712890625,204.80712890625)"/>
<path d="M0 0 C14 0 14 0 19 3 C22.57744395 7.96784561 21.36910632 15.04615409 21.375 20.875 C21.39949219 22.14214844 21.42398437 23.40929687 21.44921875 24.71484375 C21.48591427 36.34732312 21.48591427 36.34732312 17 41 C11.92281793 43.53859104 5.67646212 42 0 42 C0 28.14 0 14.28 0 0 Z " fill="#323232" transform="translate(373,227)"/>
<path d="M0 0 C2.75569447 2.18159145 4.43588747 3.87177494 6 7 C6.27229992 11.41125868 6.23168414 15.83129807 6.25 20.25 C6.270625 21.47847656 6.29125 22.70695312 6.3125 23.97265625 C6.31765625 25.16246094 6.3228125 26.35226563 6.328125 27.578125 C6.3374707 28.66512695 6.34681641 29.75212891 6.35644531 30.87207031 C5.94121552 34.51585398 4.90849052 36.88179258 3 40 C-1.22583705 42.8172247 -5.03570016 42.67547031 -10 42 C-13.09799981 39.80873184 -13.80352112 38.58943664 -15 35 C-15.24894809 30.88840772 -15.27069825 26.77677794 -15.29516602 22.65820312 C-15.30669239 21.3062087 -15.32715523 19.95426001 -15.35668945 18.60253906 C-15.39945917 16.6442118 -15.41294668 14.6853147 -15.42578125 12.7265625 C-15.44036377 11.55689941 -15.45494629 10.38723633 -15.4699707 9.18212891 C-14.90520049 5.35812113 -13.67713315 3.73288729 -11 1 C-7.52736727 -0.73631636 -3.78806987 -0.60190402 0 0 Z " fill="#2F2F2F" transform="translate(365,227)"/>
<path d="M0 0 C9 0 9 0 11.05859375 1.66015625 C11.51363281 2.45292969 11.96867187 3.24570313 12.4375 4.0625 C12.9840625 4.95839844 13.530625 5.85429687 14.09375 6.77734375 C15.03734375 8.37255859 15.03734375 8.37255859 16 10 C17.29179178 11.97384596 18.60672074 13.93062996 19.92773438 15.88500977 C21.96819229 18.91237092 23.9812833 21.95809813 26 25 C26.33 16.75 26.66 8.5 27 0 C28.98 0 30.96 0 33 0 C33 13.53 33 27.06 33 41 C27 41 27 41 25.05078125 39.19140625 C24.47714844 38.32386719 23.90351562 37.45632813 23.3125 36.5625 C22.64863281 35.57765625 21.98476562 34.5928125 21.30078125 33.578125 C20.53263136 32.38620383 19.76582639 31.19341537 19 30 C18.01510373 28.49428064 17.02938003 26.98910229 16.04296875 25.484375 C13.33174572 21.34131847 10.66955245 17.17117571 8 13 C7.67 22.24 7.34 31.48 7 41 C4.69 41 2.38 41 0 41 C0 27.47 0 13.94 0 0 Z " fill="#F4F8F4" transform="translate(89,230)"/>
<path d="M0 0 C2.97 0 5.94 0 9 0 C9.66 3.63 10.32 7.26 11 11 C11.33 7.37 11.66 3.74 12 0 C14.64 0 17.28 0 20 0 C20 13.86 20 27.72 20 42 C17.36 42 14.72 42 12 42 C11.01 37.71 10.02 33.42 9 29 C8.67 33.29 8.34 37.58 8 42 C5.36 42 2.72 42 0 42 C0 28.14 0 14.28 0 0 Z " fill="#2C2C2C" transform="translate(171,227)"/>
<path d="M0 0 C2.97 0 5.94 0 9 0 C9 11.22 9 22.44 9 34 C9.99 34 10.98 34 12 34 C12 22.78 12 11.56 12 0 C14.97 0 17.94 0 21 0 C21.07445407 4.73222455 21.1287447 9.46410411 21.16479492 14.19677734 C21.17983176 15.80491072 21.20026672 17.41300344 21.22631836 19.02099609 C21.26292822 21.33962064 21.27977722 23.65770049 21.29296875 25.9765625 C21.30845261 26.68930328 21.32393646 27.40204407 21.33988953 28.13638306 C21.34145565 32.83802507 20.52544662 36.0306495 18 40 C13.99298306 42.67134463 10.71123704 42.82653281 6 42 C2.71824682 39.47031526 1.30756223 37.92268669 0 34 C-0.08481773 31.41369776 -0.11598229 28.85521944 -0.09765625 26.26953125 C-0.0962413 25.51911057 -0.09482635 24.76868988 -0.09336853 23.99552917 C-0.0877756 21.6011454 -0.07522444 19.20685547 -0.0625 16.8125 C-0.05748408 15.18815239 -0.05292134 13.56380332 -0.04882812 11.93945312 C-0.03780848 7.95959931 -0.02054873 3.97981556 0 0 Z " fill="#383838" transform="translate(216,227)"/>
<path d="M0 0 C4.95 0 9.9 0 15 0 C15.43113365 4.53460212 15.85963736 9.06930496 16.28173828 13.60473633 C16.42575163 15.14393939 16.57122824 16.68300633 16.71826172 18.22192383 C17.47548085 26.15727123 18.21794597 34.01772896 18 42 C15.36 42 12.72 42 10 42 C10 39.69 10 37.38 10 35 C8.35 35 6.7 35 5 35 C5 37.31 5 39.62 5 42 C2.03 42 -0.94 42 -4 42 C-3.32787917 32.54122658 -2.43436359 23.11716184 -1.4375 13.6875 C-1.29736346 12.34962639 -1.15738875 11.01173583 -1.01757812 9.67382812 C-0.67996627 6.44905285 -0.34020959 3.22450225 0 0 Z " fill="#2E2E2E" transform="translate(279,227)"/>
<path d="M0 0 C2.31243792 -0.02685412 4.6249627 -0.04632841 6.9375 -0.0625 C8.22527344 -0.07410156 9.51304687 -0.08570313 10.83984375 -0.09765625 C14 0 14 0 15 1 C15.30309431 3.60208276 15.54804099 6.18658511 15.75390625 8.796875 C15.85166603 9.97555145 15.85166603 9.97555145 15.95140076 11.17803955 C16.08880438 12.84573126 16.22399782 14.5136063 16.35717773 16.18164062 C16.56055733 18.72569933 16.77088394 21.26910805 16.98242188 23.8125 C17.11499689 25.43225787 17.24717114 27.0520486 17.37890625 28.671875 C17.47263268 29.80964386 17.47263268 29.80964386 17.56825256 30.97039795 C17.86035976 34.65622291 18.07251544 38.30216866 18 42 C15.36 42 12.72 42 10 42 C10 39.69 10 37.38 10 35 C8.02 35 6.04 35 4 35 C4 37.31 4 39.62 4 42 C1.36 42 -1.28 42 -4 42 C-2.99980652 27.95226643 -1.98061114 13.94855933 0 0 Z " fill="#2D2D2D" transform="translate(197,227)"/>
<path d="M0 0 C3.81108718 0.79461939 6.23401552 2.70667177 8.9296875 5.40234375 C9.125 8.22265625 9.125 8.22265625 9.0546875 11.52734375 C9.03664063 12.62304688 9.01859375 13.71875 9 14.84765625 C8.97679687 15.69070312 8.95359375 16.53375 8.9296875 17.40234375 C6.2896875 17.40234375 3.6496875 17.40234375 0.9296875 17.40234375 C0.9296875 14.43234375 0.9296875 11.46234375 0.9296875 8.40234375 C-0.3903125 8.40234375 -1.7103125 8.40234375 -3.0703125 8.40234375 C-2.7403125 16.98234375 -2.4103125 25.56234375 -2.0703125 34.40234375 C-1.4103125 34.40234375 -0.7503125 34.40234375 -0.0703125 34.40234375 C0.2596875 31.10234375 0.5896875 27.80234375 0.9296875 24.40234375 C3.5696875 24.40234375 6.2096875 24.40234375 8.9296875 24.40234375 C9.69690061 36.04693391 9.69690061 36.04693391 7.0546875 40.71484375 C3.3338142 42.72411533 0.60171397 43.04020546 -3.5703125 43.1640625 C-6.48045555 42.27737829 -8.24404868 41.08930386 -10.08886719 38.65161133 C-12.17095048 33.87991149 -11.80180884 28.58588527 -11.72216797 23.46191406 C-11.69536446 21.40632835 -11.72195929 19.35619942 -11.75390625 17.30078125 C-11.69956887 6.28116027 -11.69956887 6.28116027 -8.78125 2.5 C-5.39768311 -0.1181202 -4.07743599 -0.31542429 0 0 Z " fill="#2B2B2B" transform="translate(339.0703125,226.59765625)"/>
<path d="M0 0 C5.61 0 11.22 0 17 0 C17 2.64 17 5.28 17 8 C14.36 8 11.72 8 9 8 C9 10.64 9 13.28 9 16 C11.64 16 14.28 16 17 16 C17 18.97 17 21.94 17 25 C14.36 25 11.72 25 9 25 C9 27.97 9 30.94 9 34 C11.97 34 14.94 34 18 34 C18 36.64 18 39.28 18 42 C12.06 42 6.12 42 0 42 C0 28.14 0 14.28 0 0 Z " fill="#333333" transform="translate(396,227)"/>
<path d="M0 0 C5.61 0 11.22 0 17 0 C17 2.97 17 5.94 17 9 C14.36 9 11.72 9 9 9 C9 10.98 9 12.96 9 15 C11.31 15 13.62 15 16 15 C16 17.64 16 20.28 16 23 C13.69 23 11.38 23 9 23 C9 29.27 9 35.54 9 42 C6.03 42 3.06 42 0 42 C0 28.14 0 14.28 0 0 Z " fill="#323232" transform="translate(239,227)"/>
<path d="M0 0 C5.28 0 10.56 0 16 0 C16 2.31 16 4.62 16 7 C13.36 7 10.72 7 8 7 C8 9.31 8 11.62 8 14 C10.64 14 13.28 14 16 14 C16 16.64 16 19.28 16 22 C13.36 22 10.72 22 8 22 C8 28.27 8 34.54 8 41 C5.36 41 2.72 41 0 41 C0 27.47 0 13.94 0 0 Z " fill="#292929" transform="translate(258,228)"/>
<path d="M0 0 C2.97 0 5.94 0 9 0 C9 11.55 9 23.1 9 35 C11.64 35 14.28 35 17 35 C17 37.31 17 39.62 17 42 C11.39 42 5.78 42 0 42 C0 28.14 0 14.28 0 0 Z " fill="#333333" transform="translate(299,227)"/>
<path d="M0 0 C6.31456189 0.36430165 6.31456189 0.36430165 9.20703125 3.046875 C11.80430067 7.32473051 11.48410491 11.37167972 11.40039062 16.20507812 C11.46378649 20.17664234 11.64535438 21.65081888 14.53515625 24.49609375 C15.75525391 25.24052734 15.75525391 25.24052734 17 26 C16.59582686 28.82921196 16.2146385 29.81786986 13.98828125 31.70703125 C11.29806 34.80950645 11.50241979 36.88217728 11.4375 40.9375 C11.34724391 45.90158517 11.04639105 48.99309978 8 53 C4.77208445 55.1519437 3.71599191 55.20086443 0 55 C0 53.02 0 51.04 0 49 C0.64710937 48.82339844 1.29421875 48.64679688 1.9609375 48.46484375 C2.63382813 47.98144531 3.30671875 47.49804688 4 47 C4.41508992 44.40418406 4.60542451 42.16359271 4.625 39.5625 C4.76131938 32.35802093 4.76131938 32.35802093 7 29 C6.71310068 26.7765303 6.14672379 25.24397095 4.9921875 23.32421875 C3.62999321 20.1332518 3.56687597 17.2037674 3.375 13.75 C3.30023438 12.48671875 3.22546875 11.2234375 3.1484375 9.921875 C3.07496094 8.47554687 3.07496094 8.47554687 3 7 C2.01 6.67 1.02 6.34 0 6 C0 4.02 0 2.04 0 0 Z " fill="#E3E8E4" transform="translate(126,224)"/>
<path d="M0 0 C0 1.98 0 3.96 0 6 C-1.32 6.33 -2.64 6.66 -4 7 C-4.03738281 8.02480469 -4.07476562 9.04960937 -4.11328125 10.10546875 C-4.17897079 11.46618062 -4.24541709 12.82685611 -4.3125 14.1875 C-4.34633789 15.19780273 -4.34633789 15.19780273 -4.38085938 16.22851562 C-4.6191644 20.66965466 -5.58385808 23.31889734 -8 27 C-7.3498008 29.21734114 -7.3498008 29.21734114 -6 31 C-4.47893366 34.04213267 -4.62570662 37.28047572 -4.4375 40.625 C-4.39431641 41.33140625 -4.35113281 42.0378125 -4.30664062 42.765625 C-4.20055249 44.51018537 -4.09977111 46.25506697 -4 48 C-2.68 48.33 -1.36 48.66 0 49 C0 50.98 0 52.96 0 55 C-3.88296546 55.45150761 -5.50130528 55.37565909 -8.67578125 52.984375 C-11.56102077 49.27963048 -11.60726857 46.43865425 -11.5 41.9375 C-11.4337031 39.14028064 -11.59802255 36.81088642 -12 34 C-14.38254442 31.63155873 -14.38254442 31.63155873 -17 30 C-17.625 27.5 -17.625 27.5 -17 25 C-15.75863281 24.17822266 -15.75863281 24.17822266 -14.4921875 23.33984375 C-11.62468756 21.13590862 -11.62468756 21.13590862 -11.46875 17.28515625 C-11.4488371 15.16443206 -11.50025689 13.05172062 -11.55078125 10.93164062 C-11.51347658 6.95123277 -11.15577532 5.20002075 -8.67578125 2.015625 C-5.50130528 -0.37565909 -3.88296546 -0.45150761 0 0 Z " fill="#E8EAE8" transform="translate(85,224)"/>
<path d="M0 0 C1.32 0 2.64 0 4 0 C4 2.97 4 5.94 4 9 C6.97 9 9.94 9 13 9 C13.33 8.34 13.66 7.68 14 7 C14 13.27 14 19.54 14 26 C13.34 26.33 12.68 26.66 12 27 C12 23.37 12 19.74 12 16 C9.36 16 6.72 16 4 16 C4 19.3 4 22.6 4 26 C2.68 26 1.36 26 0 26 C0 17.42 0 8.84 0 0 Z " fill="#D0D0D0" transform="translate(336,235)"/>
<path d="M0 0 C0.99 0 1.98 0 3 0 C3 8.58 3 17.16 3 26 C1.68 26 0.36 26 -1 26 C-1.02886751 21.85418113 -1.04675327 17.70838784 -1.0625 13.5625 C-1.07087891 12.37849609 -1.07925781 11.19449219 -1.08789062 9.97460938 C-1.09111328 8.84990234 -1.09433594 7.72519531 -1.09765625 6.56640625 C-1.10289307 5.52427979 -1.10812988 4.48215332 -1.11352539 3.40844727 C-1 1 -1 1 0 0 Z " fill="#CACACA" transform="translate(359,235)"/>
<path d="M0 0 C0.99 0 1.98 0 3 0 C3 8.58 3 17.16 3 26 C2.01 26 1.02 26 0 26 C0 17.42 0 8.84 0 0 Z " fill="#D8D8D8" transform="translate(382,235)"/>
<path d="M0 0 C2.97 0 5.94 0 9 0 C9 2.31 9 4.62 9 7 C6.03 7 3.06 7 0 7 C0 4.69 0 2.38 0 0 Z " fill="#323232" transform="translate(317,262)"/>
<path d="M0 0 C0.66 0 1.32 0 2 0 C2.33 6.93 2.66 13.86 3 21 C1.68 21 0.36 21 -1 21 C-0.67 14.07 -0.34 7.14 0 0 Z " fill="#ACACAC" transform="translate(203,235)"/>
<path d="M0 0 C0.33 0 0.66 0 1 0 C1.85373239 7.02804699 2.12109311 13.92278069 2 21 C1.01 21 0.02 21 -1 21 C-1.02895976 17.87501937 -1.04678483 14.7500731 -1.0625 11.625 C-1.07087891 10.73554688 -1.07925781 9.84609375 -1.08789062 8.9296875 C-1.09111328 8.07890625 -1.09433594 7.228125 -1.09765625 6.3515625 C-1.10289307 5.56604004 -1.10812988 4.78051758 -1.11352539 3.97119141 C-1 2 -1 2 0 0 Z " fill="#B1B1B1" transform="translate(286,234)"/>
</svg>
